<svg width="680" height="393" viewBox="0 0 680 393" role="img" xmlns="http://www.w3.org/2000/svg">
<title>QVision 16:9 conversation mockup with chart answers</title>
<desc>Simulated 16:9 product screen: Discussion view where the QVision assistant answers with two side-by-side charts (bars and donut).</desc>
<rect x="12" y="12" width="656" height="369" rx="12" fill="#0F151C" stroke="#28303C" stroke-width="1"/>
<circle cx="32" cy="27" r="3.5" fill="#3A434F"/><circle cx="46" cy="27" r="3.5" fill="#3A434F"/><circle cx="60" cy="27" r="3.5" fill="#3A434F"/>
<rect x="250" y="20" width="160" height="14" rx="7" fill="#1A222C"/>
<text x="330" y="30" text-anchor="middle" font-family="'JetBrains Mono',monospace" font-size="8" fill="#6B7785">query.vision</text>
<line x1="12" y1="40" x2="668" y2="40" stroke="#1E2630" stroke-width="1"/>
<line x1="188" y1="40" x2="188" y2="381" stroke="#1E2630" stroke-width="1"/>
<rect x="26" y="52" width="18" height="18" rx="5" fill="#03CF65"/>
<rect x="31" y="57" width="2.5" height="7" rx="1" fill="#0F151C"/><rect x="36" y="54" width="2.5" height="10" rx="1" fill="#0F151C"/>
<text x="50" y="65" font-family="'JetBrains Mono',monospace" font-size="9" letter-spacing="1" fill="#C3CCD6">RISK WORKSPACE</text>
<text x="26" y="84" font-family="'JetBrains Mono',monospace" font-size="7.5" fill="#5B6675">‹ All workspaces</text>
<rect x="28" y="104" width="6" height="6" rx="1" fill="#9BA7B4"/><rect x="36" y="104" width="6" height="6" rx="1" fill="#9BA7B4"/><rect x="28" y="112" width="6" height="6" rx="1" fill="#9BA7B4"/><rect x="36" y="112" width="6" height="6" rx="1" fill="#9BA7B4"/>
<text x="52" y="115" font-family="-apple-system,'Inter',sans-serif" font-size="11" fill="#9BA7B4">Reports</text>
<rect x="29" y="139" width="3" height="6" rx="1" fill="#9BA7B4"/><rect x="34" y="135" width="3" height="10" rx="1" fill="#9BA7B4"/><rect x="39" y="131" width="3" height="14" rx="1" fill="#9BA7B4"/>
<text x="52" y="145" font-family="-apple-system,'Inter',sans-serif" font-size="11" fill="#9BA7B4">Analyses</text>
<rect x="16" y="156" width="164" height="24" rx="7" fill="#10271A"/>
<rect x="28" y="163" width="15" height="10" rx="3" fill="none" stroke="#03CF65" stroke-width="1.2"/><path d="M32 173 l0 4 l4 -4" fill="none" stroke="#03CF65" stroke-width="1.2" stroke-linejoin="round"/>
<text x="52" y="172" font-family="-apple-system,'Inter',sans-serif" font-size="11" fill="#EAF3EE">Discussion</text>
<text x="26" y="214" font-family="'JetBrains Mono',monospace" font-size="7.5" letter-spacing="1" fill="#5B6675">SETTINGS</text>
<ellipse cx="35" cy="234" rx="6.5" ry="2.3" fill="none" stroke="#9BA7B4" stroke-width="1.2"/><path d="M28.5 234 V242 M41.5 234 V242" stroke="#9BA7B4" stroke-width="1.2"/><path d="M28.5 242 A6.5 2.3 0 0 0 41.5 242" fill="none" stroke="#9BA7B4" stroke-width="1.2"/>
<text x="52" y="241" font-family="-apple-system,'Inter',sans-serif" font-size="11" fill="#9BA7B4">Data sources</text>
<rect x="28" y="260" width="15" height="12" rx="1" fill="none" stroke="#9BA7B4" stroke-width="1.2"/><path d="M35.5 260 V272" stroke="#9BA7B4" stroke-width="1.2"/>
<text x="52" y="270" font-family="-apple-system,'Inter',sans-serif" font-size="11" fill="#9BA7B4">Skills</text>
<line x1="16" y1="334" x2="180" y2="334" stroke="#1E2630" stroke-width="1"/>
<circle cx="30" cy="356" r="12" fill="#1C2431" stroke="#2A3340" stroke-width="1"/>
<text x="30" y="360" text-anchor="middle" font-family="'JetBrains Mono',monospace" font-size="8" fill="#9FB0C0">CR</text>
<text x="48" y="353" font-family="-apple-system,'Inter',sans-serif" font-size="10" fill="#E4E9EE">Camille Roy</text>
<text x="48" y="366" font-family="'JetBrains Mono',monospace" font-size="7.5" fill="#5B6675">camille@example.com</text>
<text x="208" y="64" font-family="Georgia,'Times New Roman',serif" font-size="18" fill="#EDF1F4">Discussion</text>
<text x="208" y="82" font-family="-apple-system,'Inter',sans-serif" font-size="11" fill="#93A0B0">Ask questions in natural language.</text>
<line x1="208" y1="94" x2="652" y2="94" stroke="#1E2630" stroke-width="1"/>
<text x="648" y="110" text-anchor="end" font-family="'JetBrains Mono',monospace" font-size="8" letter-spacing="1.2" fill="#93A0B0">YOU</text>
<rect x="412" y="116" width="236" height="30" rx="12" fill="#0E131A"/>
<text x="636" y="135" text-anchor="end" font-family="-apple-system,'Inter',sans-serif" font-size="11" fill="#EDF1F4">Overview of 2025 risks.</text>
<text x="208" y="164" font-family="'JetBrains Mono',monospace" font-size="8" letter-spacing="1.2" fill="#03CF65">QVISION</text>
<circle cx="218" cy="180" r="9" fill="#03CF65"/><path d="M215 180 l2 -5 l2 5 l5 2 l-5 2 l-2 5 l-2 -5 l-5 -2 z" fill="#0F151C"/>
<text x="234" y="184" font-family="-apple-system,'Inter',sans-serif" font-size="11" fill="#C3CCD6">Here is the 2025 fiscal-year summary:</text>
<rect x="208" y="196" width="214" height="140" rx="10" fill="#1C2431" stroke="#2A3340" stroke-width="1"/>
<text x="222" y="214" font-family="'JetBrains Mono',monospace" font-size="8" letter-spacing="0.8" fill="#8C99A8">AVERAGE RAW SCORE BY SITE</text>
<line x1="222" y1="322" x2="408" y2="322" stroke="#1E2630" stroke-width="1"/>
<rect x="222" y="265" width="26" height="57" rx="3" fill="#8C84D8"/>
<rect x="260" y="260" width="26" height="62" rx="3" fill="#B3ABF2"/>
<rect x="298" y="277" width="26" height="45" rx="3" fill="#8C84D8"/>
<rect x="336" y="272" width="26" height="50" rx="3" fill="#8C84D8"/>
<rect x="374" y="280" width="26" height="42" rx="3" fill="#8C84D8"/>
<text x="235" y="332" text-anchor="middle" font-family="'JetBrains Mono',monospace" font-size="7" fill="#8C99A8">Paris</text>
<text x="273" y="332" text-anchor="middle" font-family="'JetBrains Mono',monospace" font-size="7" fill="#8C99A8">Lyon</text>
<text x="311" y="332" text-anchor="middle" font-family="'JetBrains Mono',monospace" font-size="7" fill="#8C99A8">Marseille</text>
<text x="349" y="332" text-anchor="middle" font-family="'JetBrains Mono',monospace" font-size="7" fill="#8C99A8">Bordeaux</text>
<text x="387" y="332" text-anchor="middle" font-family="'JetBrains Mono',monospace" font-size="7" fill="#8C99A8">Lille</text>
<rect x="438" y="196" width="214" height="140" rx="10" fill="#1C2431" stroke="#2A3340" stroke-width="1"/>
<text x="452" y="214" font-family="'JetBrains Mono',monospace" font-size="8" letter-spacing="0.8" fill="#8C99A8">BY CRITICALITY</text>
<g transform="rotate(-90 486 288)">
<circle cx="486" cy="288" r="30" fill="none" stroke="#2C3848" stroke-width="11"/>
<circle cx="486" cy="288" r="30" fill="none" stroke="#1D9E75" stroke-width="11" stroke-dasharray="64.1 124.4"/>
<circle cx="486" cy="288" r="30" fill="none" stroke="#97C459" stroke-width="11" stroke-dasharray="49 139.5" stroke-dashoffset="-64.1"/>
<circle cx="486" cy="288" r="30" fill="none" stroke="#EF9F27" stroke-width="11" stroke-dasharray="37.7 150.8" stroke-dashoffset="-113.1"/>
<circle cx="486" cy="288" r="30" fill="none" stroke="#E27A3F" stroke-width="11" stroke-dasharray="22.6 165.9" stroke-dashoffset="-150.8"/>
<circle cx="486" cy="288" r="30" fill="none" stroke="#D9463F" stroke-width="11" stroke-dasharray="15.1 173.4" stroke-dashoffset="-173.4"/>
</g>
<circle cx="528" cy="248" r="4" fill="#1D9E75"/><text x="540" y="252" font-family="-apple-system,'Inter',sans-serif" font-size="10" fill="#C3CCD6">Low</text><text x="640" y="252" text-anchor="end" font-family="'JetBrains Mono',monospace" font-size="9" fill="#93A0B0">34%</text>
<circle cx="528" cy="268" r="4" fill="#97C459"/><text x="540" y="272" font-family="-apple-system,'Inter',sans-serif" font-size="10" fill="#C3CCD6">Moderate</text><text x="640" y="272" text-anchor="end" font-family="'JetBrains Mono',monospace" font-size="9" fill="#93A0B0">26%</text>
<circle cx="528" cy="288" r="4" fill="#EF9F27"/><text x="540" y="292" font-family="-apple-system,'Inter',sans-serif" font-size="10" fill="#C3CCD6">Medium</text><text x="640" y="292" text-anchor="end" font-family="'JetBrains Mono',monospace" font-size="9" fill="#93A0B0">20%</text>
<circle cx="528" cy="308" r="4" fill="#E27A3F"/><text x="540" y="312" font-family="-apple-system,'Inter',sans-serif" font-size="10" fill="#C3CCD6">High</text><text x="640" y="312" text-anchor="end" font-family="'JetBrains Mono',monospace" font-size="9" fill="#93A0B0">12%</text>
<circle cx="528" cy="328" r="4" fill="#D9463F"/><text x="540" y="332" font-family="-apple-system,'Inter',sans-serif" font-size="10" fill="#C3CCD6">Critical</text><text x="640" y="332" text-anchor="end" font-family="'JetBrains Mono',monospace" font-size="9" fill="#93A0B0">8%</text>
<rect x="208" y="348" width="408" height="28" rx="9" fill="#19212C" stroke="#2E3A49" stroke-width="1"/>
<text x="222" y="366" font-family="-apple-system,'Inter',sans-serif" font-size="10" fill="#67737F">Ask your data a question…</text>
<rect x="624" y="348" width="28" height="28" rx="8" fill="#03CF65"/>
<path d="M634 362 h9 m-3 -3 l3 3 l-3 3" fill="none" stroke="#06301C" stroke-width="1.8" stroke-linecap="round" stroke-linejoin="round"/>
</svg>
