<svg width="680" height="440" viewBox="0 0 680 440" xmlns="http://www.w3.org/2000/svg">
  <title>Internal audit process — 2025 Procurement audit</title>
  <desc>Lean VSM flowchart — 5 audit stages with cycle times, inter-stage waits and lead time</desc>
  <rect x="40" y="24" width="600" height="392" rx="16" fill="#1C2431" stroke="#303B4D" stroke-width="1"/>

  <!-- Header -->
  <text x="70" y="58" font-family="Georgia,'Times New Roman',serif" font-size="19" fill="#EDF1F4">Internal audit process</text>
  <text x="610" y="58" font-family="'JetBrains Mono',monospace" font-size="11" letter-spacing="1.5" fill="#8C99A8" text-anchor="end">PROCUREMENT AUDIT 2025</text>
  <line x1="70" y1="74" x2="610" y2="74" stroke="#2B3543" stroke-width="1"/>

  <!-- ═══ PROCESS BOXES ═══ -->
  <!-- N1(68-156) N2(176-264) N3(284-372) N4(392-480) N5(500-588) — y=90→214 (h=124) -->

  <!-- N1: CADRAGE (done) -->
  <rect x="68" y="90" width="88" height="124" rx="6" fill="#18242F" stroke="#263040" stroke-width="1"/>
  <rect x="70" y="93" width="84" height="5" rx="1" fill="#03CF65" fill-opacity="0.85"/>
  <text x="112" y="110" font-family="'JetBrains Mono',monospace" font-size="8" fill="#67737F" text-anchor="middle" letter-spacing="1">01</text>
  <line x1="76" y1="116" x2="148" y2="116" stroke="#1E2C3A" stroke-width="0.5"/>
  <text x="112" y="140" font-family="-apple-system,'Inter',sans-serif" font-size="13" font-weight="bold" fill="#EDF1F4" text-anchor="middle">SCOPING</text>
  <text x="112" y="158" font-family="'JetBrains Mono',monospace" font-size="9" fill="#03CF65" text-anchor="middle">3 days</text>
  <text x="112" y="175" font-family="-apple-system,'Inter',sans-serif" font-size="10" fill="#67737F" text-anchor="middle">Objectives</text>
  <text x="112" y="189" font-family="-apple-system,'Inter',sans-serif" font-size="10" fill="#67737F" text-anchor="middle">&amp; scope</text>
  <circle cx="112" cy="208" r="5" fill="#03CF65"/>

  <!-- Arrow 1→2 + Δt -->
  <line x1="158" y1="152" x2="170" y2="152" stroke="#4A5668" stroke-width="2"/>
  <polygon points="170,148 177,152 170,156" fill="#4A5668"/>
  <rect x="154" y="138" width="28" height="12" rx="3" fill="#2A2010"/>
  <text x="168" y="147" font-family="'JetBrains Mono',monospace" font-size="8" fill="#C89432" text-anchor="middle">Δ 2d</text>

  <!-- N2: TERRAIN (done) -->
  <rect x="178" y="90" width="88" height="124" rx="6" fill="#18242F" stroke="#263040" stroke-width="1"/>
  <rect x="180" y="93" width="84" height="5" rx="1" fill="#03CF65" fill-opacity="0.85"/>
  <text x="222" y="110" font-family="'JetBrains Mono',monospace" font-size="8" fill="#67737F" text-anchor="middle" letter-spacing="1">02</text>
  <line x1="186" y1="116" x2="258" y2="116" stroke="#1E2C3A" stroke-width="0.5"/>
  <text x="222" y="140" font-family="-apple-system,'Inter',sans-serif" font-size="13" font-weight="bold" fill="#EDF1F4" text-anchor="middle">FIELDWORK</text>
  <text x="222" y="158" font-family="'JetBrains Mono',monospace" font-size="9" fill="#03CF65" text-anchor="middle">15 days</text>
  <text x="222" y="175" font-family="-apple-system,'Inter',sans-serif" font-size="10" fill="#67737F" text-anchor="middle">Interviews</text>
  <text x="222" y="189" font-family="-apple-system,'Inter',sans-serif" font-size="10" fill="#67737F" text-anchor="middle">&amp; testing</text>
  <circle cx="222" cy="208" r="5" fill="#03CF65"/>

  <!-- Arrow 2→3 + Δt -->
  <line x1="268" y1="152" x2="280" y2="152" stroke="#4A5668" stroke-width="2"/>
  <polygon points="280,148 287,152 280,156" fill="#4A5668"/>
  <rect x="264" y="138" width="28" height="12" rx="3" fill="#2A2010"/>
  <text x="278" y="147" font-family="'JetBrains Mono',monospace" font-size="8" fill="#C89432" text-anchor="middle">Δ 1d</text>

  <!-- N3: CONSTATS (done) -->
  <rect x="286" y="90" width="88" height="124" rx="6" fill="#18242F" stroke="#263040" stroke-width="1"/>
  <rect x="288" y="93" width="84" height="5" rx="1" fill="#03CF65" fill-opacity="0.85"/>
  <text x="330" y="110" font-family="'JetBrains Mono',monospace" font-size="8" fill="#67737F" text-anchor="middle" letter-spacing="1">03</text>
  <line x1="294" y1="116" x2="366" y2="116" stroke="#1E2C3A" stroke-width="0.5"/>
  <text x="330" y="140" font-family="-apple-system,'Inter',sans-serif" font-size="13" font-weight="bold" fill="#EDF1F4" text-anchor="middle">FINDINGS</text>
  <text x="330" y="158" font-family="'JetBrains Mono',monospace" font-size="9" fill="#03CF65" text-anchor="middle">5 days</text>
  <text x="330" y="175" font-family="-apple-system,'Inter',sans-serif" font-size="10" fill="#67737F" text-anchor="middle">16 findings</text>
  <text x="330" y="189" font-family="-apple-system,'Inter',sans-serif" font-size="10" fill="#67737F" text-anchor="middle">drafted</text>
  <circle cx="330" cy="208" r="5" fill="#03CF65"/>

  <!-- Arrow 3→4 + Δt -->
  <line x1="376" y1="152" x2="388" y2="152" stroke="#4A5668" stroke-width="2"/>
  <polygon points="388,148 395,152 388,156" fill="#4A5668"/>
  <rect x="372" y="138" width="28" height="12" rx="3" fill="#2A2010"/>
  <text x="386" y="147" font-family="'JetBrains Mono',monospace" font-size="8" fill="#C89432" text-anchor="middle">Δ 3d</text>

  <!-- N4: ACTIONS (active — green border) -->
  <rect x="394" y="90" width="88" height="124" rx="6" fill="#18242F" stroke="#03CF65" stroke-width="1.5"/>
  <rect x="396" y="93" width="84" height="5" rx="1" fill="#03CF65"/>
  <text x="438" y="110" font-family="'JetBrains Mono',monospace" font-size="8" fill="#03CF65" text-anchor="middle" letter-spacing="1">04 ▸</text>
  <line x1="402" y1="116" x2="474" y2="116" stroke="#1A3A28" stroke-width="0.5"/>
  <text x="438" y="140" font-family="-apple-system,'Inter',sans-serif" font-size="13" font-weight="bold" fill="#EDF1F4" text-anchor="middle">ACTIONS</text>
  <text x="438" y="158" font-family="'JetBrains Mono',monospace" font-size="9" fill="#8C99A8" text-anchor="middle">7 days</text>
  <text x="438" y="175" font-family="-apple-system,'Inter',sans-serif" font-size="10" fill="#8C99A8" text-anchor="middle">9 / 16 recs.</text>
  <text x="438" y="189" font-family="-apple-system,'Inter',sans-serif" font-size="10" fill="#67737F" text-anchor="middle">in progress</text>
  <!-- Progress bar -->
  <rect x="412" y="203" width="52" height="6" rx="2" fill="#1A2535"/>
  <rect x="412" y="203" width="29" height="6" rx="2" fill="#03CF65" fill-opacity="0.9"/>

  <!-- Arrow 4→5 dashed -->
  <line x1="484" y1="152" x2="496" y2="152" stroke="#2B3543" stroke-width="2" stroke-dasharray="3,2"/>
  <polygon points="496,148 503,152 496,156" fill="#2B3543"/>

  <!-- N5: SUIVI (pending) -->
  <rect x="502" y="90" width="88" height="124" rx="6" fill="#18242F" stroke="#2B3543" stroke-width="1"/>
  <rect x="504" y="93" width="84" height="5" rx="1" fill="#2B3543"/>
  <text x="546" y="110" font-family="'JetBrains Mono',monospace" font-size="8" fill="#4A5668" text-anchor="middle" letter-spacing="1">05</text>
  <line x1="510" y1="116" x2="582" y2="116" stroke="#1E2C3A" stroke-width="0.5"/>
  <text x="546" y="140" font-family="-apple-system,'Inter',sans-serif" font-size="13" font-weight="bold" fill="#8C99A8" text-anchor="middle">FOLLOW-UP</text>
  <text x="546" y="158" font-family="'JetBrains Mono',monospace" font-size="9" fill="#4A5668" text-anchor="middle">Ongoing</text>
  <text x="546" y="175" font-family="-apple-system,'Inter',sans-serif" font-size="10" fill="#4A5668" text-anchor="middle">Quarterly</text>
  <text x="546" y="189" font-family="-apple-system,'Inter',sans-serif" font-size="10" fill="#4A5668" text-anchor="middle">review</text>
  <circle cx="546" cy="208" r="5" fill="#18242F" stroke="#2B3543" stroke-width="1.5"/>

  <!-- ═══ LEAD TIME BAR (VSM style) ═══ -->
  <!-- Total: 36j. Scale: 444px / 36j = 12.3px/j. Bar x=138→582. -->
  <!-- Cadrage 3j · Δ2j · Terrain 15j · Δ1j · Constats 5j · Δ3j · Actions 7j (partial) -->
  <line x1="68" y1="226" x2="612" y2="226" stroke="#2B3543" stroke-width="0.5"/>
  <text x="68" y="241" font-family="'JetBrains Mono',monospace" font-size="9" fill="#4A5668" letter-spacing="0.5">LEAD TIME</text>
  <!-- Background track -->
  <rect x="138" y="232" width="444" height="7" rx="2" fill="#1A2535"/>
  <!-- Completed process segments (green) -->
  <rect x="138" y="232" width="37"  height="7" rx="1" fill="#03CF65" fill-opacity="0.55"/><!-- Cadrage 3j -->
  <rect x="200" y="232" width="185" height="7" fill="#03CF65" fill-opacity="0.55"/><!-- Terrain 15j -->
  <rect x="397" y="232" width="61"  height="7" fill="#03CF65" fill-opacity="0.55"/><!-- Constats 5j -->
  <rect x="470" y="232" width="49"  height="7" fill="#03CF65" fill-opacity="0.30"/><!-- Actions partiel -->
  <!-- Δt notches (amber) -->
  <rect x="175" y="232" width="25" height="7" fill="#C89432" fill-opacity="0.75"/><!-- Δ2j -->
  <rect x="385" y="232" width="12" height="7" fill="#C89432" fill-opacity="0.75"/><!-- Δ1j -->
  <rect x="458" y="232" width="37" height="7" fill="#C89432" fill-opacity="0.75"/><!-- Δ3j -->
  <!-- Labels -->
  <text x="582" y="241" font-family="'JetBrains Mono',monospace" font-size="9" fill="#8C99A8" text-anchor="end">36d total</text>
  <!-- Legend -->
  <rect x="138" y="246" width="8" height="4" rx="1" fill="#03CF65" fill-opacity="0.55"/>
  <text x="150" y="251" font-family="'JetBrains Mono',monospace" font-size="8" fill="#67737F">Process 30d</text>
  <rect x="222" y="246" width="8" height="4" rx="1" fill="#C89432" fill-opacity="0.75"/>
  <text x="234" y="251" font-family="'JetBrains Mono',monospace" font-size="8" fill="#67737F">Waiting 6d</text>

  <!-- Progress bar -->
  <text x="68" y="272" font-family="'JetBrains Mono',monospace" font-size="9" fill="#4A5668" letter-spacing="0.5">PROGRESS</text>
  <rect x="155" y="263" width="340" height="7" rx="2" fill="#1A2535"/>
  <rect x="155" y="263" width="238" height="7" rx="2" fill="#03CF65" fill-opacity="0.75"/>
  <text x="502" y="272" font-family="'JetBrains Mono',monospace" font-size="9" fill="#03CF65">70%</text>

  <!-- ═══ AI BLOCK ═══ -->
  <rect x="68" y="286" width="544" height="48" rx="8" fill="#1A2B3A" stroke="#293A4A" stroke-width="1"/>
  <text x="84" y="302" font-family="'JetBrains Mono',monospace" font-size="10" fill="#03CF65" letter-spacing="1">AI ·</text>
  <text x="108" y="302" font-family="-apple-system,'Inter',sans-serif" font-size="12" fill="#9BA4AE">9 of 16 findings have an assigned owner. 3 are past their planned implementation date.</text>
  <text x="84" y="320" font-family="-apple-system,'Inter',sans-serif" font-size="12" fill="#6B7A8A">Ask: “Which findings are behind the action plan?”</text>

  <!-- Footer -->
  <line x1="68" y1="348" x2="612" y2="348" stroke="#2B3543" stroke-width="1"/>
  <text x="68" y="364" font-family="'JetBrains Mono',monospace" font-size="10" fill="#67737F">Procurement audit · Period audited: Jan–Mar 2025 · Stage 4 / 5 in progress</text>
</svg>
